<?xml version="1.0" encoding="UTF-8" standalone="no"?>
<svg id="svg2" xmlns:rdf="http://www.w3.org/1999/02/22-rdf-syntax-ns#" xmlns="http://www.w3.org/2000/svg" height="1736pt" width="4646pt" version="1.1" xmlns:cc="http://creativecommons.org/ns#" xmlns:dc="http://purl.org/dc/elements/1.1/" viewBox="0 0 4646 1736">
<path id="rect4703" d="m370.14 7.8094c-14.59 32.3-18.78 68.391-19.21 103.54-11.38 5.38-23.17 10.64-35.13 14.53 0.81-30.28-1.49-61.46-12.8-89.88-2.8096 2.07-9.3696 3.7203-7.1592 8.1703 10.89 26.65 14.729 55.61 15.069 84.23-8.36 5.01-18.159 7.3694-25.769 13.759-69.87 49.5-142.75 94.93-219.01 133.95-15.89 9.33-29.619 27.171-24.389 46.661-30.74 40.38-21.302 103.53 19.01 134.67-5.6904 18.23-15.6 35.72-20.86 54.38 9.34-15.85 15.39-34.71 25.19-50.82 7.1896 4.92 15.28 9.6506 21.67 15.091-10.24 26.1-16.819 53.469-22.901 80.809 9.8408-25.58 15.95-52.661 27.521-77.641 6.0896 0.55 11.159 5.7 17.389 6.8-13.61 35.79-21.14 75.491-22 112.91 6.6-37.19 12.001-75.511 28.611-109.86 2.7-0.28 5.4792 0.52 7.6792 2.1-4.78 44.27 6.3008 88.89 17.991 130.92-6.2704-42.24-18.871-85.329-9.9312-128.09 4.4 1.28 12.01 1.4991 12.52 7.3891 7.74 39.46 26.99 75.461 47.29 109.69-15.03-35.95-34.881-70.681-40.01-110.01 4.44 2.03 10.721 2.1812 13.481 6.5812 17.61 50.34 49.479 94.129 82.669 135.22-25.56-42.52-57.829-83.129-70.939-131.77 17.12 4.9 33.61 12.82 50.1 19.63 22.66 43.62 34.7 91.939 52.91 137.26-10.7-44.69-23.05-89.19-40.259-131.88 11.75 5 23.86 9.5803 34.77 16.22 14.35 28.85 23.719 60.909 37.51 89.489-8.4504-29-19.49-57.23-29.101-85.83 42.4 18.72 83.04 41.371 122.93 64.961 4.24 1.77 6.1704 6.12 8.0696 10 40.721 81.98 93.22 157.33 146.91 231.21 14.82 67.56 27.222 145.43 83.882 192 25.77 46.17 58.59 89.551 103 119.24 13.81 49.53 30.209 101.56 64.718 140.43-18.43 55.02-63.36 96.48-109.35 129.48-71.94 9.98-141.21 33.11-209.39 57.48-6.5496 2.06-10.85 7.8006-15.561 12.441-43.49 41.8-90.389 80.16-141.14 112.83-28.89 21.14-37.021 60.66-29.561 94.12 17.78 11.14 41.21 6.4691 54.55-9.2609 20.68 13.6 48.07 17.25 71.49 8.7 5.4-1.99 9.1896-8.9488 15.659-6.0188 29.42 6.44 61.33 0.4294 85.721-17.441 17.31 12.05 41.341 11.04 57.261-2.8703 73.02 17.54 140.56-25.79 197.73-65.35 11.22-10.23 25.019-15.85 40.01-17.98 123.32-30.14 244.85-76.491 346.14-154.69 233.2 95.98 487 131.56 737.82 135.65 89.209 2.29 178.52 0.8803 267.72-0.1797 216.2-11.7 424.45-76.27 634.96-121.28 188.6 1.18 378.11-26.74 556.3-89.58 125.12-43.83 246.48-102.63 350.24-185.84 112.49-23.86 218.37-72.089 316.21-131.69 5.32-3.56 11.36-5.7906 17.571-7.4406 84.6-22.58 165.62-56.391 245.52-91.741 69.931-2.91 141.84-5.299 208.36-29.389 33.8-11.75 62.41-34.6 85.43-61.57 8.3-11.83 23.27-19.289 27.58-33.559 3.85-37.05-24.65-72.66-59.91-81.6 7.44-9.8 16.43-21.021 12.53-34.281-2.3-10.66-13.92-14.31-21.309-19.8 15.86-24.07 14.557-65.969-15.931-77.219-86.36-5.85-172.66 15.14-251.33 50.1-65.69 28.91-126.31 67.529-187.84 104.16-40.46 22.96-82.671 49.739-130.72 49.909-149.39-25.19-295.17-72.209-446.66-84.609-66.48-3.44-132.26 8.4697-198.35 12.88-115.69 15.85-228.38-23.41-342.1-37.38-154.94-50.47-307.77-109.54-468.26-140.76-246.21-99.16-503.43-173.96-767.28-206.77-116.39-14.88-234.02-12.281-351.03-11.741-106.48-23.01-213.19-45.49-321.07-61.03-4.28-0.66-7.32-4.1194-10.65-6.5094-78.5-62.89-161.52-120.67-250.9-167.07-28.55-14.17-57.039-28.981-87.63-38.361-109.62-38.241-231.06-28.29-339.18 10.67 5.3104-22.95 13.179-48.67 34.939-61.2-0.82-10.24-13.318-3.6803-16.718 1.4797-14.76 17.08-20.15 39.931-25.421 61.331-6.3 3.57-13.239 6.0394-20.179 8.1094 1.6296-28.13 3.5392-57.09 14.759-83.33 3.04-5.65-0.3896-12.121-2.3592-17.661z"/>
</svg>
